<svg width="20" height="20" viewBox="0 0 20 20" fill="none" xmlns="http://www.w3.org/2000/svg">
<path d="M10.0001 19.0002C8.22007 19.0002 6.47999 18.4724 4.99993 17.4835C3.51986 16.4945 2.36629 15.0889 1.6851 13.4443C1.0039 11.7998 0.825667 9.99014 1.17294 8.24429C1.52021 6.49844 2.37739 4.89477 3.63608 3.63608C4.89477 2.37739 6.49844 1.52021 8.24429 1.17294C9.99014 0.825667 11.7998 1.0039 13.4443 1.6851C15.0889 2.36629 16.4945 3.51986 17.4835 4.99993C18.4724 6.47999 19.0002 8.22007 19.0002 10.0001C18.9972 12.3862 18.048 14.6736 16.3608 16.3608C14.6736 18.048 12.3862 18.9972 10.0001 19.0002ZM10.0001 2.14652C8.44683 2.14652 6.92841 2.60712 5.63689 3.47009C4.34537 4.33305 3.33876 5.55962 2.74434 6.99468C2.14992 8.42974 1.99439 10.0088 2.29742 11.5323C2.60045 13.0557 3.34844 14.4551 4.44679 15.5535C5.54513 16.6518 6.94451 17.3998 8.46796 17.7028C9.99141 18.0059 11.5705 17.8503 13.0056 17.2559C14.4406 16.6615 15.6672 15.6549 16.5302 14.3634C17.3931 13.0718 17.8537 11.5534 17.8537 10.0001C17.8507 7.91815 17.0223 5.92231 15.5501 4.45013C14.0779 2.97795 12.0821 2.14955 10.0001 2.14652Z" fill="#3CB4E4" stroke="#3CB4E4" stroke-width="0.6"/>
<path d="M9.99904 14.2422C9.847 14.2422 9.70119 14.1819 9.59368 14.0743C9.48618 13.9668 9.42578 13.821 9.42578 13.669V8.69313C9.42578 8.54109 9.48618 8.39528 9.59368 8.28778C9.70119 8.18027 9.847 8.11987 9.99904 8.11987C10.1511 8.11987 10.2969 8.18027 10.4044 8.28778C10.5119 8.39528 10.5723 8.54109 10.5723 8.69313V13.669C10.5723 13.821 10.5119 13.9668 10.4044 14.0743C10.2969 14.1819 10.1511 14.2422 9.99904 14.2422Z" fill="#3CB4E4"/>
<path d="M9.97686 7.34068C10.4328 7.34068 10.8023 6.97109 10.8023 6.51519C10.8023 6.05928 10.4328 5.6897 9.97686 5.6897C9.52095 5.6897 9.15137 6.05928 9.15137 6.51519C9.15137 6.97109 9.52095 7.34068 9.97686 7.34068Z" fill="#3CB4E4"/>
</svg>
