<svg width="40" height="40" viewBox="0 0 40 40" fill="none" xmlns="http://www.w3.org/2000/svg">
<path d="M20 0C25.3043 0 30.3914 2.10714 34.1421 5.85786C37.8929 9.60859 40 14.6957 40 20C40 25.3043 37.8929 30.3914 34.1421 34.1421C30.3914 37.8929 25.3043 40 20 40C14.6957 40 9.60859 37.8929 5.85786 34.1421C2.10714 30.3914 0 25.3043 0 20C0 14.6957 2.10714 9.60859 5.85786 5.85786C9.60859 2.10714 14.6957 0 20 0ZM10 20.04C9.99663 20.2552 10.0367 20.4688 10.1178 20.6681C10.1989 20.8674 10.3194 21.0483 10.472 21.2L17.056 27.764C17.2054 27.9137 17.3829 28.0325 17.5783 28.1136C17.7736 28.1948 17.9831 28.2366 18.1946 28.2368C18.4061 28.237 18.6156 28.1955 18.8111 28.1147C19.0066 28.0339 19.1843 27.9154 19.334 27.766C19.4837 27.6166 19.6025 27.4391 19.6836 27.2437C19.7648 27.0484 19.8066 26.8389 19.8068 26.6274C19.807 26.4159 19.7655 26.2064 19.6847 26.0109C19.6039 25.8154 19.4854 25.6377 19.336 25.488L15.48 21.628H28.4C28.8243 21.628 29.2313 21.4594 29.5314 21.1594C29.8314 20.8593 30 20.4523 30 20.028C30 19.6037 29.8314 19.1967 29.5314 18.8966C29.2313 18.5966 28.8243 18.428 28.4 18.428H15.444L19.336 14.536C19.6383 14.2337 19.8082 13.8236 19.8082 13.396C19.8082 13.1843 19.7665 12.9746 19.6855 12.779C19.6045 12.5834 19.4857 12.4057 19.336 12.256C19.1863 12.1063 19.0086 11.9875 18.813 11.9065C18.6174 11.8255 18.4077 11.7838 18.196 11.7838C17.7684 11.7838 17.3583 11.9537 17.056 12.256L10.472 18.82C10.3218 18.9693 10.2027 19.147 10.1217 19.3427C10.0407 19.5384 9.9993 19.7482 10 19.96V20.04Z" fill="black" fill-opacity="0.6"/>
</svg>
