<svg width="32" height="32" viewBox="0 0 32 32" fill="none" xmlns="http://www.w3.org/2000/svg">
<rect width="31.1732" height="31.1732" rx="15.5866" fill="#77CBEC" fill-opacity="0.3"/>
<path d="M20.395 9.11999H19.5448V8.48874C19.5448 8.291 19.47 8.10136 19.3368 7.96154C19.2035 7.82172 19.0228 7.74316 18.8344 7.74316C18.646 7.74316 18.4653 7.82172 18.332 7.96154C18.1988 8.10136 18.1239 8.291 18.1239 8.48874V9.11999H12.8761V8.48874C12.8761 8.291 12.8012 8.10136 12.668 7.96154C12.5347 7.82172 12.354 7.74316 12.1656 7.74316C11.9772 7.74316 11.7965 7.82172 11.6632 7.96154C11.53 8.10136 11.4552 8.291 11.4552 8.48874V9.11999H10.605C9.9141 9.11999 9.25151 9.40801 8.76298 9.92069C8.27445 10.4334 8 11.1287 8 11.8538V21.0094C8 21.7344 8.27445 22.4298 8.76298 22.9425C9.25151 23.4551 9.9141 23.7432 10.605 23.7432H20.395C21.0859 23.7432 21.7485 23.4551 22.237 22.9425C22.7255 22.4298 23 21.7344 23 21.0094V11.8538C23 11.1287 22.7255 10.4334 22.237 9.92069C21.7485 9.40801 21.0859 9.11999 20.395 9.11999ZM10.6074 10.6111H11.4575V11.7394C11.4575 11.9372 11.5324 12.1268 11.6656 12.2666C11.7989 12.4065 11.9796 12.485 12.168 12.485C12.3564 12.485 12.5371 12.4065 12.6703 12.2666C12.8036 12.1268 12.8784 11.9372 12.8784 11.7394V10.6111H18.1239V11.7394C18.1239 11.9372 18.1988 12.1268 18.332 12.2666C18.4653 12.4065 18.646 12.485 18.8344 12.485C19.0228 12.485 19.2035 12.4065 19.3368 12.2666C19.47 12.1268 19.5448 11.9372 19.5448 11.7394V10.6111H20.395C20.7091 10.6111 21.0102 10.7421 21.2323 10.9751C21.4543 11.2081 21.5791 11.5242 21.5791 11.8538V14.1153H9.4209V11.8538C9.4209 11.5242 9.54565 11.2081 9.76771 10.9751C9.98977 10.7421 10.291 10.6111 10.605 10.6111H10.6074ZM20.395 22.252H10.605C10.291 22.252 9.98977 22.1211 9.76771 21.8881C9.54565 21.655 9.4209 21.339 9.4209 21.0094V15.6065H21.5791V21.0094C21.5791 21.339 21.4543 21.655 21.2323 21.8881C21.0102 22.1211 20.7091 22.252 20.395 22.252Z" fill="#3CB4E4"/>
</svg>
