<svg width="20" height="20" viewBox="0 0 20 20" fill="currentColor" xmlns="http://www.w3.org/2000/svg">
<path d="M9.2729 3.18164H7.09109C7.01876 3.18166 6.9494 3.2104 6.89826 3.26154C6.84712 3.31268 6.81838 3.38204 6.81836 3.45437V5.63619C6.81838 5.70851 6.84712 5.77787 6.89826 5.82901C6.9494 5.88016 7.01876 5.90889 7.09109 5.90891H9.2729C9.34523 5.90889 9.41459 5.88016 9.46573 5.82901C9.51687 5.77787 9.54561 5.70851 9.54563 5.63619V3.45437C9.54561 3.38204 9.51687 3.31268 9.46573 3.26154C9.41459 3.2104 9.34523 3.18166 9.2729 3.18164ZM9.00018 5.36346H7.36381V3.7271H9.00018V5.36346Z"  stroke-width="0.2"/>
<path d="M10.7278 5.90891H12.9096C12.9819 5.90889 13.0513 5.88016 13.1025 5.82901C13.1536 5.77787 13.1823 5.70851 13.1824 5.63619V3.45437C13.1823 3.38204 13.1536 3.31268 13.1025 3.26154C13.0513 3.2104 12.9819 3.18166 12.9096 3.18164H10.7278C10.6555 3.18166 10.5861 3.2104 10.535 3.26154C10.4838 3.31268 10.4551 3.38204 10.4551 3.45437V5.63619C10.4551 5.70851 10.4838 5.77787 10.535 5.82901C10.5861 5.88016 10.6555 5.90889 10.7278 5.90891ZM11.0005 3.7271H12.6369V5.36346H11.0005V3.7271Z"  stroke-width="0.2"/>
<path d="M9.2729 6.81787H7.09109C7.01876 6.81789 6.9494 6.84663 6.89826 6.89777C6.84712 6.94891 6.81838 7.01827 6.81836 7.0906V9.27242C6.81838 9.34474 6.84712 9.4141 6.89826 9.46524C6.9494 9.51639 7.01876 9.54513 7.09109 9.54514H9.2729C9.34523 9.54513 9.41459 9.51639 9.46573 9.46524C9.51687 9.4141 9.54561 9.34474 9.54563 9.27242V7.0906C9.54561 7.01827 9.51687 6.94891 9.46573 6.89777C9.41459 6.84663 9.34523 6.81789 9.2729 6.81787ZM9.00018 8.99969H7.36381V7.36333H9.00018V8.99969Z"  stroke-width="0.2"/>
<path d="M13.1814 7.0906C13.1814 7.01827 13.1526 6.94891 13.1015 6.89777C13.0503 6.84663 12.981 6.81789 12.9086 6.81787H10.7268C10.6545 6.81789 10.5851 6.84663 10.534 6.89777C10.4829 6.94891 10.4541 7.01827 10.4541 7.0906V9.27242C10.4541 9.34474 10.4829 9.4141 10.534 9.46524C10.5851 9.51639 10.6545 9.54513 10.7268 9.54514H12.9086C12.981 9.54513 13.0503 9.51639 13.1015 9.46524C13.1526 9.4141 13.1814 9.34474 13.1814 9.27242V7.0906ZM12.6359 8.99969H10.9996V7.36333H12.6359V8.99969Z" stroke-width="0.2"/>
<path d="M1 18.7273C1.00002 18.7996 1.02876 18.869 1.0799 18.9201C1.13104 18.9712 1.2004 19 1.27273 19H18.7273C18.7996 19 18.869 18.9712 18.9201 18.9201C18.9712 18.869 19 18.7996 19 18.7273V7.81818C19 7.74586 18.9712 7.6765 18.9201 7.62535C18.869 7.57421 18.7996 7.54547 18.7273 7.54545H14.6364V1.27273C14.6363 1.2004 14.6076 1.13104 14.5565 1.0799C14.5053 1.02876 14.436 1.00002 14.3636 1H5.63636C5.56404 1.00002 5.49468 1.02876 5.44354 1.0799C5.39239 1.13104 5.36365 1.2004 5.36364 1.27273V7.54545H1.27273C1.2004 7.54547 1.13104 7.57421 1.0799 7.62535C1.02876 7.6765 1.00002 7.74586 1 7.81818V18.7273ZM1.54545 8.09091H5.36364V18.4545H4.45455V15.0909C4.45453 15.0186 4.42579 14.9492 4.37465 14.8981C4.3235 14.8469 4.25414 14.8182 4.18182 14.8182H2.72727C2.65495 14.8182 2.58559 14.8469 2.53445 14.8981C2.4833 14.9492 2.45456 15.0186 2.45455 15.0909V18.4545H1.54545V8.09091ZM18.4545 18.4545H17.5455V15.0909C17.5454 15.0186 17.5167 14.9492 17.4656 14.8981C17.4144 14.8469 17.3451 14.8182 17.2727 14.8182H15.8182C15.7459 14.8182 15.6765 14.8469 15.6254 14.8981C15.5742 14.9492 15.5455 15.0186 15.5455 15.0909V18.4545H14.6364V8.09091H18.4545V18.4545ZM17 18.4545H16.0909V15.3636H17V18.4545ZM7.36364 12.4545H9.72727V18.4545H7.36364V12.4545ZM10.2727 12.4545H12.6364V18.4545H10.2727V12.4545ZM12.9091 11.9091H10.0018L10 11.9087L9.99825 11.9091H7.09091C7.01858 11.9091 6.94922 11.9378 6.89808 11.989C6.84694 12.0401 6.8182 12.1095 6.81818 12.1818V18.4545H5.90909V1.54545H14.0909V18.4545H13.1818V12.1818C13.1818 12.1095 13.1531 12.0401 13.1019 11.989C13.0508 11.9378 12.9814 11.9091 12.9091 11.9091ZM3.90909 18.4545H3V15.3636H3.90909V18.4545Z" stroke-width="0.2"/>
<path d="M2.72781 9.54545H4.18235C4.25468 9.54545 4.32405 9.51672 4.3752 9.46557C4.42634 9.41443 4.45508 9.34506 4.45508 9.27273C4.45508 9.2004 4.42634 9.13103 4.3752 9.07988C4.32405 9.02873 4.25468 9 4.18235 9H2.72781C2.65547 9 2.5861 9.02873 2.53496 9.07988C2.48381 9.13103 2.45508 9.2004 2.45508 9.27273C2.45508 9.34506 2.48381 9.41443 2.53496 9.46557C2.5861 9.51672 2.65547 9.54545 2.72781 9.54545Z" stroke-width="0.2"/>
<path d="M2.72781 11H4.18235C4.25468 11 4.32405 10.9713 4.3752 10.9202C4.42634 10.869 4.45508 10.7996 4.45508 10.7273C4.45508 10.655 4.42634 10.5856 4.3752 10.5345C4.32405 10.4833 4.25468 10.4546 4.18235 10.4546H2.72781C2.65547 10.4546 2.5861 10.4833 2.53496 10.5345C2.48381 10.5856 2.45508 10.655 2.45508 10.7273C2.45508 10.7996 2.48381 10.869 2.53496 10.9202C2.5861 10.9713 2.65547 11 2.72781 11Z" stroke-width="0.2"/>
<path d="M2.72781 12.4546H4.18235C4.25468 12.4546 4.32405 12.4259 4.3752 12.3748C4.42634 12.3236 4.45508 12.2542 4.45508 12.1819C4.45508 12.1096 4.42634 12.0402 4.3752 11.9891C4.32405 11.9379 4.25468 11.9092 4.18235 11.9092H2.72781C2.65547 11.9092 2.5861 11.9379 2.53496 11.9891C2.48381 12.0402 2.45508 12.1096 2.45508 12.1819C2.45508 12.2542 2.48381 12.3236 2.53496 12.3748C2.5861 12.4259 2.65547 12.4546 2.72781 12.4546Z" stroke-width="0.2"/>
<path d="M15.8176 9.54545H17.2722C17.3445 9.54545 17.4139 9.51672 17.465 9.46557C17.5162 9.41443 17.5449 9.34506 17.5449 9.27273C17.5449 9.2004 17.5162 9.13103 17.465 9.07988C17.4139 9.02873 17.3445 9 17.2722 9H15.8176C15.7453 9 15.6759 9.02873 15.6248 9.07988C15.5737 9.13103 15.5449 9.2004 15.5449 9.27273C15.5449 9.34506 15.5737 9.41443 15.6248 9.46557C15.6759 9.51672 15.7453 9.54545 15.8176 9.54545Z" stroke-width="0.2"/>
<path d="M15.8186 11H17.2732C17.3455 11 17.4149 10.9713 17.466 10.9202C17.5172 10.869 17.5459 10.7996 17.5459 10.7273C17.5459 10.655 17.5172 10.5856 17.466 10.5345C17.4149 10.4833 17.3455 10.4546 17.2732 10.4546H15.8186C15.7463 10.4546 15.6769 10.4833 15.6258 10.5345C15.5746 10.5856 15.5459 10.655 15.5459 10.7273C15.5459 10.7996 15.5746 10.869 15.6258 10.9202C15.6769 10.9713 15.7463 11 15.8186 11Z" stroke-width="0.2"/>
<path d="M15.8186 12.4546H17.2732C17.3455 12.4546 17.4149 12.4259 17.466 12.3748C17.5172 12.3236 17.5459 12.2542 17.5459 12.1819C17.5459 12.1096 17.5172 12.0402 17.466 11.9891C17.4149 11.9379 17.3455 11.9092 17.2732 11.9092H15.8186C15.7463 11.9092 15.6769 11.9379 15.6258 11.9891C15.5746 12.0402 15.5459 12.1096 15.5459 12.1819C15.5459 12.2542 15.5746 12.3236 15.6258 12.3748C15.6769 12.4259 15.7463 12.4546 15.8186 12.4546Z"  stroke-width="0.2"/>
</svg>
