<svg width="31" height="28" viewBox="0 0 31 28" xmlns="http://www.w3.org/2000/svg">
<path d="M11.1039 22.4746C10.5643 22.4746 10.127 22.0371 10.127 21.4974C10.127 20.9577 10.5643 20.5203 11.1039 20.5203H19.8967C20.4363 20.5203 20.8737 20.9577 20.8737 21.4974C20.8737 22.0371 20.4363 22.4746 19.8967 22.4746H11.1039Z"/>
<path fill-rule="evenodd" clip-rule="evenodd" d="M20.095 1.73091C17.464 -0.576974 13.5224 -0.576969 10.8915 1.73092L1.63242 9.85299C0.0274435 11.2609 1.03639 13.8856 3.15612 13.8856C3.37098 13.8856 3.53649 14.0763 3.50747 14.2876C3.13056 17.0319 2.89762 18.9522 2.81808 20.7062C2.64177 24.5939 6.05932 27.3607 9.71794 27.3607H21.3464C24.9877 27.3607 28.4107 24.6159 28.2342 20.7365C28.1537 18.9664 27.9087 17.0406 27.5105 14.2803C27.4807 14.0732 27.6425 13.8856 27.8531 13.8856C29.9649 13.8856 30.9701 11.2706 29.3711 9.86794L20.095 1.73091ZM12.1799 3.20023C14.0736 1.53904 16.9129 1.53904 18.8066 3.20023L28.0827 11.3372C28.3133 11.5394 28.179 11.9312 27.8531 11.9312C26.4506 11.9312 25.3771 13.1758 25.5766 14.5593C25.975 17.3215 26.2066 19.1614 26.2823 20.8254C26.3969 23.3458 24.1361 25.4064 21.3464 25.4064H9.71794C6.9204 25.4064 4.65496 23.3321 4.77004 20.7948C4.84509 19.1398 5.06613 17.2994 5.44326 14.5536C5.63327 13.1698 4.55741 11.9312 3.15612 11.9312C2.82228 11.9312 2.68437 11.5297 2.92081 11.3223L12.1799 3.20023Z"/>
</svg>
