<svg width="26" height="20" viewBox="0 0 26 20" fill="none" xmlns="http://www.w3.org/2000/svg">
<path d="M1.76471 0C0.790088 0 0 0.790056 0 1.76471C0 2.73929 0.790088 3.52941 1.76471 3.52941H23.5294C24.504 3.52941 25.2941 2.73929 25.2941 1.76471C25.2941 0.790056 24.504 0 23.5294 0H1.76471ZM1.76471 8.23529C0.790088 8.23529 0 9.02534 0 10C0 10.9746 0.790088 11.7647 1.76471 11.7647H23.5294C24.504 11.7647 25.2941 10.9746 25.2941 10C25.2941 9.02534 24.504 8.23529 23.5294 8.23529H1.76471ZM1.76471 16.4706C0.790088 16.4706 0 17.2606 0 18.2353C0 19.2099 0.790088 20 1.76471 20H23.5294C24.504 20 25.2941 19.2099 25.2941 18.2353C25.2941 17.2606 24.504 16.4706 23.5294 16.4706H1.76471Z" fill="black"/>
</svg>
