<svg width="26" height="26" viewBox="0 0 26 26" xmlns="http://www.w3.org/2000/svg">
<path d="M8.69242 21.5564H10.6069C10.6069 22.8781 11.6784 23.9496 13.0001 23.9496C14.3218 23.9496 15.3933 22.8781 15.3933 21.5564H17.3078C17.3078 23.9355 15.3792 25.8641 13.0001 25.8641C10.621 25.8641 8.69242 23.9355 8.69242 21.5564ZM25.4446 19.1625V19.6428C25.4446 20.7031 24.5875 21.5564 23.5294 21.5564H2.47086C1.41305 21.5564 0.555664 20.7001 0.555664 19.6428V19.1625C0.555664 17.4763 1.80396 16.0812 3.42746 15.8473V10.0689C3.42746 4.78087 7.71262 0.496582 13.0001 0.496582C18.2876 0.496582 22.5728 4.78189 22.5728 10.0689V15.8472C24.1985 16.0805 25.4446 17.4746 25.4446 19.1625ZM23.53 19.1625C23.53 18.3687 22.8881 17.7274 22.0897 17.7274C21.2988 17.7274 20.6582 17.082 20.6582 16.2949V10.0689C20.6582 5.83924 17.2302 2.41111 13.0001 2.41111C8.7699 2.41111 5.34199 5.83832 5.34199 10.0689V16.2949C5.34199 17.0855 4.69811 17.7274 3.91051 17.7274C3.11482 17.7274 2.47019 18.3707 2.47019 19.1625V19.642L23.5294 19.6419L23.53 19.1625Z" fill="currentColor"  />
</svg>
