<svg width="66" height="65" viewBox="0 0 66 65" fill="none" xmlns="http://www.w3.org/2000/svg">
<path d="M24.9119 4.69594V24.4964H4.68471V4.69594H24.9119ZM25.9785 1.01123H3.61809C2.18299 1.01123 1 2.17482 1 3.62932V25.5825C1 27.0176 2.16359 28.2005 3.61809 28.2005H25.9785C27.4136 28.2005 28.5966 27.0369 28.5966 25.5825V3.62932C28.5966 2.17482 27.433 1.01123 25.9785 1.01123Z" fill="#3CB4E4" stroke="#3CB4E4" stroke-width="0.5"/>
<path d="M61.3518 4.05459V23.8551H41.1247V4.05459H61.3518ZM62.4184 0.369873H40.058C38.6229 0.369873 37.4399 1.53347 37.4399 2.98796V24.9411C37.4399 26.3762 38.6035 27.5592 40.058 27.5592H62.4184C63.8535 27.5592 65.0365 26.3956 65.0365 24.9411V2.98796C65.0171 1.55286 63.8535 0.369873 62.4184 0.369873Z" fill="#3CB4E4" stroke="#3CB4E4" stroke-width="0.5"/>
<path d="M24.9119 40.4955V60.296H4.68471V40.4955H24.9119ZM25.9785 36.8108H3.61809C2.18299 36.8108 1 37.9744 1 39.4289V61.382C1 62.8171 2.16359 64.0001 3.61809 64.0001H25.9785C27.4136 64.0001 28.5966 62.8365 28.5966 61.382V39.4095C28.5966 37.9744 27.433 36.8108 25.9785 36.8108Z" fill="#3CB4E4" stroke="#3CB4E4" stroke-width="0.5"/>
<path d="M61.3518 39.8554V59.6559H41.1247V39.8554H61.3518ZM62.4184 36.1707H40.058C38.6229 36.1707 37.4399 37.3342 37.4399 38.7887V60.7419C37.4399 62.177 38.6035 63.36 40.058 63.36H62.4184C63.8535 63.36 65.0365 62.1964 65.0365 60.7419V38.7887C65.0171 37.3342 63.8535 36.1707 62.4184 36.1707Z" fill="#3CB4E4" stroke="#3CB4E4" stroke-width="0.5"/>
</svg>
