<svg width="66" height="66" viewBox="0 0 66 66" fill="none" xmlns="http://www.w3.org/2000/svg">
<path d="M64.033 50.8308L33 65L1.96703 50.8308C1.35165 50.592 1 50.1144 1 49.5572V16.204C1 15.408 1.43956 14.6915 2.31868 14.2935L31.9451 1.23881C32.6484 0.920398 33.3517 0.920398 34.0549 1.23881L63.6813 14.2935C64.5604 14.6915 65 15.408 65 16.204V49.5572C65 50.1144 64.6484 50.592 64.033 50.8308ZM4.07692 18.9104V48.6816L31.4176 61.0995V30.9303L4.07692 18.9104ZM34.5824 30.9303V61.0995L61.9231 48.6816V18.9104L34.5824 30.9303ZM33 3.86567L5.13187 16.204L33 28.4627L60.956 16.204L33 3.86567Z"/>
</svg>
