<svg width="17" height="17" viewBox="0 0 17 17" fill="none" xmlns="http://www.w3.org/2000/svg">
<path d="M16.004 12.3286C15.953 11.7167 15.6471 11.1813 15.1881 10.7989L13.9133 9.75356C13.021 9.03968 11.7717 9.06517 10.9049 9.83004L9.96152 10.6714C9.63007 10.5694 8.83971 10.2125 7.81988 9.19265C6.77455 8.14733 6.44311 7.35696 6.34113 7.05101L7.18249 6.10767C7.94736 5.26631 7.97285 3.99153 7.25897 3.09918L6.21365 1.8244C5.83121 1.33998 5.2958 1.05953 4.68391 1.00853C4.07201 0.957542 3.48561 1.13601 3.02669 1.51845C1.7774 2.56377 1.06352 3.86405 1.01253 5.29181C0.859554 7.35696 2.10884 9.72806 4.68391 12.2776C7.15699 14.7507 9.4516 16 11.4913 16C11.5677 16 11.6442 16 11.7207 16C13.1485 15.9235 14.4488 15.2351 15.4941 13.9858C15.8765 13.5014 16.055 12.915 16.004 12.3286ZM14.9077 13.4759C13.9898 14.5722 12.919 15.1586 11.6952 15.2096C9.80854 15.3116 7.64141 14.1133 5.21932 11.7167C2.79723 9.32013 1.64992 7.1275 1.72641 5.24082C1.7774 4.01702 2.3638 2.94621 3.46011 2.02836C3.71507 1.7989 4.04652 1.69692 4.40346 1.69692C4.45445 1.69692 4.50544 1.69692 4.55643 1.69692C4.96436 1.74791 5.3213 1.92638 5.57626 2.23233L6.62158 3.50711C7.106 4.09351 7.0805 4.93487 6.57059 5.52127L5.60175 6.61759C5.52527 6.69407 5.49977 6.82155 5.49977 6.92353C5.49977 6.97452 5.67824 8.09634 7.25897 9.65157C8.81421 11.2068 9.93602 11.3853 9.98701 11.4108C10.089 11.4363 10.2165 11.3853 10.293 11.3088L11.3893 10.34C11.9502 9.83004 12.817 9.80455 13.4034 10.289L14.6782 11.3343C14.9842 11.5892 15.1881 11.9462 15.2136 12.3541C15.2646 12.7875 15.1626 13.17 14.9077 13.4759Z" fill="#3CB4E4" stroke="#3CB4E4" stroke-width="0.195486"/>
<path d="M9.29526 2.18225C10.621 2.20774 11.9978 2.84513 13.0686 3.91595C14.1394 4.98677 14.7768 6.36354 14.8023 7.68932C14.8023 7.89328 14.9808 8.07175 15.1848 8.07175C15.3887 8.07175 15.5672 7.89328 15.5672 7.68932C15.5162 6.15957 14.8023 4.60434 13.604 3.40604C12.4057 2.20774 10.8505 1.49386 9.32075 1.44287C9.11679 1.44287 8.93832 1.59585 8.93832 1.82531C8.91282 2.00378 9.0658 2.18225 9.29526 2.18225Z" fill="#3CB4E4" stroke="#3CB4E4" stroke-width="0.195486"/>
<path d="M9.24767 4.22117C10.038 4.24667 10.9304 4.6546 11.6188 5.36848C12.3072 6.05686 12.7406 6.94921 12.7661 7.73957C12.7661 7.94354 12.9445 8.12201 13.1485 8.12201C13.3525 8.12201 13.5309 7.94354 13.5309 7.73957C13.5055 6.74524 12.9955 5.67442 12.1797 4.85856C11.3638 4.0427 10.2675 3.48179 9.24767 3.4563C9.0437 3.4563 8.86523 3.60927 8.86523 3.83873C8.86523 4.0427 9.01821 4.22117 9.24767 4.22117Z" fill="#3CB4E4" stroke="#3CB4E4" stroke-width="0.195486"/>
</svg>
