<svg width="13" height="18" viewBox="0 0 13 18" fill="none" xmlns="http://www.w3.org/2000/svg">
<path d="M11.2959 15.9375C10.968 15.9375 10.6382 15.9375 10.3102 15.9375C9.52543 15.9375 8.74255 15.9375 7.95777 15.9375C7.01375 15.9375 6.06974 15.9375 5.12383 15.9375C4.31251 15.9375 3.49929 15.9375 2.68797 15.9375C2.30885 15.9375 1.92973 15.9413 1.55061 15.9375C1.50322 15.9375 1.45772 15.9337 1.41223 15.928C1.47099 15.9356 1.52976 15.9432 1.58852 15.9528C1.5127 15.9413 1.44066 15.9204 1.37053 15.8899C1.4236 15.9127 1.47668 15.9356 1.52976 15.9566C1.46151 15.9261 1.39896 15.8879 1.3402 15.8441C1.38569 15.8784 1.42929 15.9127 1.47478 15.949C1.41792 15.9032 1.36484 15.8517 1.31934 15.7926C1.35346 15.8384 1.38759 15.8822 1.4236 15.928C1.37811 15.8689 1.34209 15.8041 1.31176 15.7373C1.33451 15.7907 1.35726 15.8441 1.37811 15.8975C1.34967 15.8269 1.32882 15.7545 1.31555 15.6782C1.32313 15.7373 1.33072 15.7964 1.3402 15.8555C1.32693 15.7526 1.33072 15.6496 1.33072 15.5467C1.33072 15.3637 1.33072 15.1807 1.33072 14.9976C1.33072 14.38 1.33072 13.7642 1.33072 13.1465C1.33072 12.3953 1.33072 11.6423 1.33072 10.8912C1.33072 10.2449 1.33072 9.5967 1.33072 8.95041C1.33072 8.64919 1.32693 8.34607 1.33072 8.04485C1.33072 7.9991 1.33451 7.95334 1.3402 7.90759C1.33261 7.96669 1.32503 8.02579 1.31555 8.08489C1.32693 8.00863 1.34778 7.93619 1.37811 7.86565C1.35536 7.91903 1.33261 7.97241 1.31176 8.02579C1.34209 7.95716 1.38 7.89424 1.4236 7.83514C1.38948 7.8809 1.35536 7.92475 1.31934 7.9705C1.36484 7.91331 1.41602 7.85993 1.47478 7.81417C1.42929 7.84849 1.38569 7.88281 1.3402 7.91903C1.39896 7.87327 1.46341 7.83705 1.52976 7.80655C1.47668 7.82942 1.4236 7.8523 1.37053 7.87327C1.44066 7.84468 1.5127 7.82371 1.58852 7.81036C1.52976 7.81799 1.47099 7.82561 1.41223 7.83514C1.53165 7.81989 1.65676 7.82561 1.77808 7.82561C2.01314 7.82561 2.2463 7.82561 2.48135 7.82561C3.26234 7.82561 4.04523 7.82561 4.82622 7.82561C5.77592 7.82561 6.72752 7.82561 7.67722 7.82561C8.49612 7.82561 9.31313 7.82561 10.132 7.82561C10.5168 7.82561 10.9035 7.8218 11.2884 7.82561C11.3357 7.82561 11.3812 7.82942 11.4267 7.83514C11.368 7.82752 11.3092 7.81989 11.2504 7.81036C11.3263 7.8218 11.3983 7.84277 11.4684 7.87327C11.4154 7.8504 11.3623 7.82752 11.3092 7.80655C11.3774 7.83705 11.44 7.87518 11.4988 7.91903C11.4533 7.88471 11.4097 7.8504 11.3642 7.81417C11.421 7.85993 11.4741 7.9114 11.5196 7.9705C11.4855 7.92475 11.4514 7.8809 11.4154 7.83514C11.4609 7.89424 11.4969 7.95906 11.5272 8.02579C11.5044 7.97241 11.4817 7.91903 11.4609 7.86565C11.4893 7.93619 11.5101 8.00863 11.5234 8.08489C11.5158 8.02579 11.5082 7.96669 11.4988 7.90759C11.512 8.01054 11.5082 8.11348 11.5082 8.21643C11.5082 8.39945 11.5082 8.58247 11.5082 8.76549C11.5082 9.38317 11.5082 9.99895 11.5082 10.6166C11.5082 11.3678 11.5082 12.1208 11.5082 12.872C11.5082 13.5182 11.5082 14.1664 11.5082 14.8127C11.5082 15.1139 11.512 15.4171 11.5082 15.7183C11.5082 15.764 11.5044 15.8098 11.4988 15.8555C11.5063 15.7964 11.5139 15.7373 11.5234 15.6782C11.512 15.7545 11.4912 15.8269 11.4609 15.8975C11.4836 15.8441 11.5063 15.7907 11.5272 15.7373C11.4969 15.806 11.459 15.8689 11.4154 15.928C11.4495 15.8822 11.4836 15.8384 11.5196 15.7926C11.4741 15.8498 11.4229 15.9032 11.3642 15.949C11.4097 15.9146 11.4533 15.8803 11.4988 15.8441C11.44 15.8899 11.3755 15.9261 11.3092 15.9566C11.3623 15.9337 11.4154 15.9108 11.4684 15.8899C11.3983 15.9185 11.3263 15.9394 11.2504 15.9528C11.3092 15.9451 11.368 15.9375 11.4267 15.928C11.3831 15.9337 11.3395 15.9375 11.2959 15.9375C10.949 15.9432 10.6154 16.2406 10.6325 16.6048C10.6476 16.9613 10.9244 17.2777 11.2959 17.272C11.821 17.2644 12.2741 17.007 12.5755 16.58C12.7518 16.3322 12.8333 16.0157 12.8352 15.7126C12.8371 15.5772 12.8352 15.4418 12.8352 15.3046C12.8352 14.603 12.8352 13.8995 12.8352 13.198C12.8352 12.2886 12.8352 11.3792 12.8352 10.4698C12.8352 9.78162 12.8352 9.09149 12.8352 8.40326C12.8352 8.28125 12.8371 8.15924 12.8352 8.03913C12.8257 7.18695 12.1414 6.49682 11.294 6.48729C10.9699 6.48348 10.6457 6.48729 10.3216 6.48729C9.56714 6.48729 8.81269 6.48729 8.05634 6.48729C7.14644 6.48729 6.23655 6.48729 5.32666 6.48729C4.51913 6.48729 3.7116 6.48729 2.90407 6.48729C2.46808 6.48729 2.03399 6.48729 1.598 6.48729C1.56956 6.48729 1.54113 6.48729 1.5127 6.48729C0.989508 6.50445 0.540248 6.76944 0.244533 7.19839C0.0435989 7.49008 0 7.83896 0 8.18402C0 8.7693 0 9.35458 0 9.94176C0 10.8435 0 11.7453 0 12.647C0 13.4267 0 14.2046 0 14.9843C0 15.194 0 15.4037 0 15.6134C0 15.6496 0 15.6859 0 15.7221C0.00568683 16.1301 0.163022 16.5285 0.451155 16.8183C0.767722 17.1367 1.18855 17.272 1.62643 17.272C1.79514 17.272 1.96385 17.272 2.13256 17.272C2.80361 17.272 3.47465 17.272 4.1457 17.272C5.04421 17.272 5.94273 17.272 6.84125 17.272C7.69807 17.272 8.55678 17.272 9.41359 17.272C9.96142 17.272 10.5112 17.272 11.059 17.272C11.1367 17.272 11.2144 17.272 11.2921 17.272C11.639 17.272 11.9708 16.9651 11.9556 16.6048C11.9442 16.2445 11.6694 15.9375 11.2959 15.9375Z" fill="#3CB4E4"/>
<path d="M10.369 6.48918C10.1074 6.48918 9.84578 6.48918 9.58419 6.48918C8.95485 6.48918 8.3274 6.48918 7.69806 6.48918C6.93792 6.48918 6.17778 6.48918 5.41764 6.48918C4.75987 6.48918 4.10209 6.48918 3.44621 6.48918C3.12775 6.48918 2.80739 6.48155 2.48703 6.48918C2.48324 6.48918 2.47755 6.48918 2.47376 6.48918C2.69555 6.71223 2.91544 6.93338 3.13722 7.15643C3.13722 6.34619 3.13722 5.53405 3.13722 4.72381C3.13722 4.49885 3.14291 4.2758 3.17324 4.05275C3.16566 4.11185 3.15808 4.17095 3.1486 4.23005C3.19599 3.8907 3.28508 3.55898 3.41588 3.2406C3.39313 3.29398 3.37038 3.34736 3.34953 3.40074C3.48033 3.0919 3.64904 2.80212 3.84997 2.53522C3.81585 2.58097 3.78173 2.62482 3.74571 2.67058C3.95423 2.39986 4.19497 2.15774 4.46225 1.94994C4.41676 1.98426 4.37316 2.01857 4.32767 2.0548C4.59305 1.85081 4.88118 1.68113 5.18827 1.5515C5.1352 1.57437 5.08212 1.59725 5.02904 1.61822C5.34371 1.48668 5.67355 1.39517 6.01286 1.34941C5.9541 1.35704 5.89533 1.36467 5.83657 1.3742C6.22138 1.32272 6.61756 1.32272 7.00237 1.3742C6.94361 1.36657 6.88484 1.35895 6.82608 1.34941C7.1635 1.39707 7.49333 1.48668 7.8099 1.61822C7.75682 1.59534 7.70375 1.57247 7.65067 1.5515C7.95776 1.68304 8.24589 1.85271 8.51127 2.0548C8.46578 2.02048 8.42218 1.98616 8.37669 1.94994C8.64586 2.15965 8.8866 2.40177 9.09323 2.67058C9.05911 2.62482 9.02498 2.58097 8.98897 2.53522C9.1918 2.80212 9.36051 3.0919 9.48941 3.40074C9.46666 3.34736 9.44391 3.29398 9.42306 3.2406C9.55386 3.55707 9.64485 3.88879 9.69034 4.23005C9.68276 4.17095 9.67518 4.11185 9.6657 4.05275C9.71688 4.44357 9.70172 4.84392 9.70172 5.23855C9.70172 5.75138 9.70172 6.26612 9.70172 6.77896C9.70172 6.90478 9.70172 7.03061 9.70172 7.15643C9.70172 7.50531 10.0069 7.83894 10.3652 7.82369C10.7253 7.80843 11.0286 7.53009 11.0286 7.15643C11.0286 6.33476 11.0286 5.51117 11.0286 4.6895C11.0286 4.48551 11.023 4.28152 10.9964 4.07944C10.9661 3.83923 10.9301 3.60283 10.8675 3.36833C10.805 3.13956 10.7197 2.92223 10.6249 2.70489C10.2913 1.93088 9.72257 1.28078 9.03825 0.798452C7.65446 -0.175739 5.74369 -0.246277 4.25563 0.520112C2.76 1.29031 1.8103 2.90316 1.80651 4.58464C1.80461 5.41395 1.80651 6.24325 1.80651 7.07255C1.80651 7.10115 1.80651 7.12784 1.80651 7.15643C1.80651 7.51675 2.1098 7.82369 2.46997 7.82369C2.73156 7.82369 2.99316 7.82369 3.25475 7.82369C3.88409 7.82369 4.51154 7.82369 5.14088 7.82369C5.90102 7.82369 6.66116 7.82369 7.4213 7.82369C8.07908 7.82369 8.73685 7.82369 9.39273 7.82369C9.71119 7.82369 10.0316 7.82941 10.3519 7.82369C10.3557 7.82369 10.3614 7.82369 10.3652 7.82369C10.7121 7.82369 11.0438 7.51675 11.0286 7.15643C11.0154 6.79421 10.7405 6.48918 10.369 6.48918Z" fill="#3CB4E4"/>
<path d="M5.74805 12.344C5.74805 12.7692 5.74805 13.1962 5.74805 13.6213C5.74805 13.9702 6.05324 14.3038 6.41151 14.2886C6.77168 14.2733 7.07497 13.995 7.07497 13.6213C7.07497 13.1962 7.07497 12.7692 7.07497 12.344C7.07497 11.9951 6.76978 11.6615 6.41151 11.6768C6.05134 11.6939 5.74805 11.9704 5.74805 12.344Z" fill="#3CB4E4"/>
</svg>
