<svg width="18" height="18" viewBox="0 0 18 18" fill="none" xmlns="http://www.w3.org/2000/svg">
<path fill-rule="evenodd" clip-rule="evenodd" d="M5.28585 8.42864C5.75923 8.42864 6.143 8.04487 6.143 7.5715C6.143 7.09813 5.75923 6.71436 5.28585 6.71436C4.81247 6.71436 4.42871 7.09813 4.42871 7.5715C4.42871 8.04487 4.81247 8.42864 5.28585 8.42864ZM5.28585 7.85721C5.44365 7.85721 5.57157 7.72927 5.57157 7.5715C5.57157 7.41373 5.44365 7.28578 5.28585 7.28578C5.12806 7.28578 5.00014 7.41373 5.00014 7.5715C5.00014 7.72927 5.12806 7.85721 5.28585 7.85721Z" fill="#3CB4E4" stroke="#3CB4E4" stroke-width="0.6"/>
<path fill-rule="evenodd" clip-rule="evenodd" d="M6.143 11.0002C6.143 11.4736 5.75923 11.8574 5.28585 11.8574C4.81247 11.8574 4.42871 11.4736 4.42871 11.0002C4.42871 10.5268 4.81247 10.1431 5.28585 10.1431C5.75923 10.1431 6.143 10.5268 6.143 11.0002ZM5.57157 11.0002C5.57157 11.158 5.44365 11.2859 5.28585 11.2859C5.12806 11.2859 5.00014 11.158 5.00014 11.0002C5.00014 10.8424 5.12806 10.7145 5.28585 10.7145C5.44365 10.7145 5.57157 10.8424 5.57157 11.0002Z" fill="#3CB4E4" stroke="#3CB4E4" stroke-width="0.6"/>
<path fill-rule="evenodd" clip-rule="evenodd" d="M5.28585 15.2856C5.75923 15.2856 6.143 14.9018 6.143 14.4284C6.143 13.9551 5.75923 13.5713 5.28585 13.5713C4.81247 13.5713 4.42871 13.9551 4.42871 14.4284C4.42871 14.9018 4.81247 15.2856 5.28585 15.2856ZM5.28585 14.7141C5.44365 14.7141 5.57157 14.5862 5.57157 14.4284C5.57157 14.2707 5.44365 14.1427 5.28585 14.1427C5.12806 14.1427 5.00014 14.2707 5.00014 14.4284C5.00014 14.5862 5.12806 14.7141 5.28585 14.7141Z" fill="#3CB4E4" stroke="#3CB4E4" stroke-width="0.6"/>
<path d="M7.857 7.28564C7.69923 7.28564 7.57129 7.41359 7.57129 7.57136C7.57129 7.72913 7.69923 7.85707 7.857 7.85707H14.7141C14.8719 7.85707 14.9999 7.72913 14.9999 7.57136C14.9999 7.41359 14.8719 7.28564 14.7141 7.28564H7.857Z" fill="#3CB4E4" stroke="#3CB4E4" stroke-width="0.6"/>
<path d="M7.857 14.1431C7.69923 14.1431 7.57129 14.271 7.57129 14.4288C7.57129 14.5866 7.69923 14.7145 7.857 14.7145H14.7141C14.8719 14.7145 14.9999 14.5866 14.9999 14.4288C14.9999 14.271 14.8719 14.1431 14.7141 14.1431H7.857Z" fill="#3CB4E4" stroke="#3CB4E4" stroke-width="0.6"/>
<path d="M7.57129 11.0001C7.57129 10.8423 7.69923 10.7144 7.857 10.7144H14.7141C14.8719 10.7144 14.9999 10.8423 14.9999 11.0001C14.9999 11.1578 14.8719 11.2858 14.7141 11.2858H7.857C7.69923 11.2858 7.57129 11.1578 7.57129 11.0001Z" fill="#3CB4E4" stroke="#3CB4E4" stroke-width="0.6"/>
<path fill-rule="evenodd" clip-rule="evenodd" d="M4.14286 1.57143L3.28571 1V2.71429H2.71429C1.76751 2.71429 1 3.4818 1 4.42857V15.2857C1 16.2325 1.76751 17 2.71429 17H15.2857C16.2325 17 17 16.2325 17 15.2857V4.42857C17 3.4818 16.2325 2.71429 15.2857 2.71429H14.7143V1L13.8571 1.57143L13.2857 1L12.7143 1.57143L12.1429 1L11.5714 1.57143L10.7143 1V2.71429H7.28571V1L6.42857 1.57143L5.85714 1L5.28571 1.57143L4.71429 1L4.14286 1.57143ZM6.71429 2.06773L6.35577 2.30674L5.85714 1.80812L5.28571 2.37955L4.71429 1.80812L4.21567 2.30674L3.85714 2.06773V4.5037L4.21567 4.26469L4.71429 4.76331L5.28571 4.19188L5.85714 4.76331L6.35577 4.26469L6.71429 4.5037V2.06773ZM3.28571 3.28571V5.57143L4.14286 5L4.71429 5.57143L5.28571 5L5.85714 5.57143L6.42857 5L7.28571 5.57143V3.28571H10.7143V5.57143L11.5714 5L12.1429 5.57143L12.7143 5L13.2857 5.57143L13.8571 5L14.7143 5.57143V3.28571H15.2857C15.9169 3.28571 16.4286 3.79739 16.4286 4.42857V15.2857C16.4286 15.9169 15.9169 16.4286 15.2857 16.4286H2.71429C2.0831 16.4286 1.57143 15.9169 1.57143 15.2857V4.42857C1.57143 3.79739 2.0831 3.28571 2.71429 3.28571H3.28571ZM14.1429 2.06773L13.7843 2.30674L13.2857 1.80812L12.7143 2.37955L12.1429 1.80812L11.6442 2.30674L11.2857 2.06773V4.5037L11.6442 4.26469L12.1429 4.76331L12.7143 4.19188L13.2857 4.76331L13.7843 4.26469L14.1429 4.5037V2.06773Z" fill="#3CB4E4" stroke="#3CB4E4" stroke-width="0.6"/>
</svg>
