<svg width="28" height="28" viewBox="0 0 28 28" fill="none" xmlns="http://www.w3.org/2000/svg">
<path d="M26.9467 16.3048C26.1259 15.8274 25.6495 14.9609 25.6495 14.008C25.6495 13.0551 26.1259 12.1885 26.9467 11.7112C27.7675 11.1916 28.1577 10.1947 27.8554 9.32817C27.6392 8.72227 27.3791 8.11463 27.1207 7.50872C26.6883 6.64215 25.7374 6.25289 24.7865 6.46953C23.8778 6.68617 22.9269 6.42553 22.2362 5.73329C21.5437 5.03934 21.2853 4.08646 21.5015 3.1776C21.7176 2.22472 21.2853 1.27184 20.4644 0.838557C19.902 0.535595 19.2534 0.27494 18.6488 0.102319C17.7401 -0.200643 16.7892 0.188637 16.2707 1.01291C15.7944 1.83546 14.9296 2.31277 13.9787 2.31277C13.0278 2.31277 12.1631 1.83546 11.6868 1.01291C11.1683 0.190362 10.1734 -0.200634 9.30869 0.102319C8.70405 0.318961 8.09768 0.579626 7.49304 0.838557C6.62828 1.27184 6.23983 2.22472 6.45602 3.1776C6.67221 4.0882 6.4121 5.04108 5.72132 5.73329C5.02882 6.42724 4.07793 6.68617 3.17097 6.46953C2.22008 6.25289 1.26919 6.68617 0.836805 7.50872C0.534476 8.07234 0.274365 8.72227 0.102105 9.32817C-0.200224 10.2388 0.188244 11.1916 1.0108 11.7112C1.83163 12.1885 2.30794 13.0551 2.30794 14.008C2.30794 14.9609 1.83163 15.8274 1.0108 16.3048C0.189965 16.8244 -0.200215 17.8213 0.102105 18.6878C0.318295 19.2937 0.578415 19.9014 0.836805 20.5073C1.26919 21.3738 2.22008 21.7631 3.17097 21.5465C4.07966 21.3298 5.03055 21.5905 5.72132 22.2827C6.41382 22.9767 6.67221 23.9295 6.45602 24.8384C6.23983 25.7913 6.67221 26.7442 7.49304 27.1774C8.05548 27.4804 8.70405 27.7411 9.30869 27.9137C9.52488 28 9.74107 28 9.95726 28C10.6498 28 11.3405 27.6107 11.7307 26.9608C12.207 26.1383 13.0718 25.661 14.0227 25.661C14.9736 25.661 15.8383 26.1383 16.3146 26.9608C16.8331 27.7834 17.828 28.1744 18.6927 27.8714C19.2974 27.6548 19.9037 27.3941 20.5084 27.1352C21.3731 26.7019 21.7616 25.749 21.5454 24.7961C21.3292 23.8855 21.5893 22.9326 22.2801 22.2404C22.9726 21.5465 23.9235 21.2875 24.8304 21.5042C25.7813 21.7208 26.7322 21.2875 27.1646 20.465C27.4669 19.9014 27.727 19.2515 27.8993 18.6455C28.1999 17.8213 27.8114 16.8244 26.9467 16.3048ZM13.9753 19.5967C10.9047 19.5967 8.39844 17.0833 8.39844 14.0082C8.39844 10.9312 10.9066 8.4197 13.9753 8.4197C17.0459 8.4197 19.5521 10.9331 19.5521 14.0082C19.5521 17.0852 17.0457 19.5967 13.9753 19.5967Z" fill="#263238"/>
</svg>
